<?xml version="1.0" encoding="UTF-8"?>
<!-- Created with Inkscape (http://www.inkscape.org/) -->
<svg width="100" height="100" version="1.1" viewBox="0 0 100 100" xmlns="http://www.w3.org/2000/svg">
 <g>
  <path d="m33.78 47.28c-9.192 4.956-18.4 9.876-27.59 14.84-0.6778 0.3751-0.8497 1.382-0.2999 1.938 0.5237 0.4761 1.221 0.7185 1.821 1.089 8.429 4.564 16.86 9.117 25.34 13.59 0.5726 0.3018 1.225 0.7326 1.887 0.4179 6.015-3.17 11.99-6.417 17.98-9.634 3.227-1.748 6.469-3.472 9.679-5.251 0.7-0.4272 0.7787-1.537 0.1134-2.031-0.9657-0.6181-2.015-1.107-3.016-1.67-1.164-0.6061-2.301-1.276-3.484-1.84-0.7397-0.2987-1.408 0.2927-2.071 0.5443-2.709 1.205-5.509 2.192-8.247 3.327-3.981 1.599-7.96 3.202-11.94 4.804-0.3419-0.02523-0.7107 0.05227-1.042-0.0255-0.3602-0.2345-0.2055-0.7376-0.2289-1.093 0.1554-1.393 0.9161-2.611 1.382-3.911 1.595-3.938 3.18-7.881 4.742-11.83 0.2592-0.6922-0.2127-1.433-0.8743-1.671-1.048-0.5419-2.067-1.149-3.132-1.65-0.3269-0.148-0.7006-0.08649-1.02 0.05082z" fill="#c1c1c1"/>
  <path d="m17.83 73.26c-3.922 1.995-7.77 4.138-11.66 6.202-0.764 0.4145-0.8648 1.568-0.1642 2.093 4.328 2.382 8.707 4.688 13.05 7.044 4.921 2.636 9.826 5.312 14.76 7.927 0.8982 0.3915 1.679-0.4077 2.458-0.7408 8.781-4.712 17.57-9.423 26.34-14.15 0.8508-0.464 0.7611-1.814-0.1094-2.205-3.864-2.053-7.69-4.183-11.59-6.168-0.9348-0.2638-1.689 0.5168-2.496 0.8483-4.583 2.417-9.118 4.928-13.72 7.311-0.6799 0.2684-1.272-0.393-1.867-0.614-4.726-2.495-9.401-5.089-14.15-7.538-0.2916-0.05546-0.5644-0.1095-0.8539-9e-3z" fill="#606060"/>
  <path d="m35.38 43.99a2.15 2.167 0 0 0-2.021 0l-32.25 17.33a2.15 2.167 0 0 0 0 3.822l12.57 6.755-12.57 6.755a2.15 2.167 0 0 0 0 3.822l32.25 17.33a2.15 2.167 0 0 0 2.021 0l32.25-17.33a2.15 2.167 0 0 0 0-3.822l-12.56-6.755 12.56-6.755a2.15 2.167 0 0 0 0-3.822zm15.11 30.37 11.56 6.209-27.68 14.88-27.68-14.88 11.56-6.209 15.11 8.12a2.15 2.167 0 0 0 2.021 0zm-16.13 3.753-27.68-14.88 27.68-14.88 27.68 14.88z" stroke-width="4.316"/>
  <path d="m83.46 0.5549c2.41-1.771 3.946 1.146 5.521 2.478 3.571 3.64 7.285 7.155 10.77 10.88 1.077 2.278-1.612 3.575-2.819 5.079-13.51 13.52-27.01 27.03-40.52 40.55-3.164 1.673-6.644 2.738-9.937 4.162-4.095 1.639-8.19 3.278-12.28 4.917-3.948 0.6863-2.83-3.502-1.711-5.509 2.505-6.267 5.01-12.53 7.515-18.8 2.194-2.745 4.935-5.045 7.353-7.607 12.04-12.05 24.08-24.09 36.12-36.14z" stroke-width="1.126"/>
  <g stroke-width="1.251">
   <path d="m44.28 45.86c-1.14 1.328-1.404 3.233-2.19 4.795-1.612 4.034-3.224 8.067-4.836 12.1 5.508-2.259 11.13-4.344 16.57-6.712-0.1018-0.8816-1.585-2.767-1.079-4.483-1.979 0.307-4.715-0.4125-4.3-2.93 0.5656-1.737-0.9417-1.401-2.141-1.372-0.8587 2e-3 -1.748-0.5536-2.022-1.398z" fill="#f8cd89"/>
   <path d="m86.25 23.59c-3.286-3.289-6.573-6.577-9.859-9.866-9.316 9.322-18.63 18.64-27.95 27.97-0.5401 1.678 1.038 1.236 2.15 1.261 3.228-0.4235 1.398 3.629 2.539 4.303 2.226-0.4606 4.394 1.137 3.911 3.514-0.3464 1.525 1.863 0.7146 2.223-0.1756 8.995-9.001 17.99-18 26.99-27z" fill="#f0ff17"/>
   <path d="m79.43 10.68c3.286 3.289 6.573 6.577 9.859 9.866 1.853-1.854 3.706-3.709 5.56-5.563-3.286-3.289-6.573-6.577-9.859-9.866-1.853 1.854-3.706 3.709-5.56 5.563z" fill="#ff8ca9"/>
  </g>
 </g>
</svg>
